<svg xmlns="http://www.w3.org/2000/svg" viewBox="0 0 448 512">
  <defs>
    <linearGradient id="logo-grad" x1="0%" y1="0%" x2="100%" y2="100%">
      <stop offset="0%" stop-color="#06b6d4" />
      <stop offset="100%" stop-color="#8b5cf6" />
    </linearGradient>
  </defs>
  <path fill="url(#logo-grad)" d="M48 24C21.5 24 0 45.5 0 72v48c0 26.5 21.5 48 48 48h352c26.5 0 48-21.5 48-48V72c0-26.5-21.5-48-48-48H48zm32 56c0-4.4 3.6-8 8-8h16c4.4 0 8 3.6 8 8v16c0 4.4-3.6 8-8 8H88c-4.4 0-8-3.6-8-8V80zm96 0c0-4.4 3.6-8 8-8h16c4.4 0 8 3.6 8 8v16c0 4.4-3.6 8-8 8h-16c-4.4 0-8-3.6-8-8V80zm-128 144c0-26.5 21.5-48 48-48h352c26.5 0 48 21.5 48 48v48c0 26.5-21.5 48-48 48H48c-26.5 0-48-21.5-48-48v-48zm80 24c0-4.4 3.6-8 8-8h16c4.4 0 8 3.6 8 8v16c0 4.4-3.6 8-8 8H88c-4.4 0-8-3.6-8-8v-16zm96 0c0-4.4 3.6-8 8-8h16c4.4 0 8 3.6 8 8v16c0 4.4-3.6 8-8 8h-16c-4.4 0-8-3.6-8-8v-16zm-128 144c0-26.5 21.5-48 48-48h352c26.5 0 48 21.5 48 48v48c0 26.5-21.5 48-48 48H48c-26.5 0-48-21.5-48-48v-48zm80 24c0-4.4 3.6-8 8-8h16c4.4 0 8 3.6 8 8v16c0 4.4-3.6 8-8 8H88c-4.4 0-8-3.6-8-8v-16zm96 0c0-4.4 3.6-8 8-8h16c4.4 0 8 3.6 8 8v16c0 4.4-3.6 8-8 8h-16c-4.4 0-8-3.6-8-8v-16z"/>
</svg>
